<svg xmlns="http://www.w3.org/2000/svg" width="697" height="313" fill="none" viewBox="0 0 697 313"><path fill="#111" d="M41.2849 133.582L55.0465 126.051L121.233 83.4885C120.185 86.3697 141.33 103.242 152.033 111.318C153.868 119.438 157.603 134.127 159.242 140.457C167.368 153.815 157.822 178.327 152.033 188.913C140.238 196.247 140.128 210.74 141.548 217.07C134.471 229.119 117.411 286.044 109.765 313C104.785 269.259 85.191 245.227 76.0166 238.679L77.6549 224.928L76.0166 223.291L70.7741 214.123C59.5027 209.147 58.4323 198.517 59.3061 193.824C55.1121 192.777 49.4763 189.022 47.1827 187.276C46.1342 177.847 40.4111 168.287 37.6807 164.685V152.571L41.2849 133.582Z"/><path fill="#fff" d="M121.561 102.478V92.0012L123.855 89.7094C124.654 91.2407 125.893 93.9742 126.618 96.5273C126.214 94.1818 125.547 91.423 124.51 89.0545L124.182 88.7271C124.51 87.1992 125.362 84.6018 126.148 86.4353C126.839 88.045 128.984 91.1084 129.973 94.264C129.67 92.8057 129.188 90.963 128.442 88.7271C129.503 89.1247 131.232 90.391 132.486 92.8485L132.046 91.0189C133.903 91.3464 137.485 93.7693 136.961 100.841C136.961 102.915 137.813 108.044 141.221 111.973C144.628 115.902 147.228 124.96 148.101 128.998C148.975 131.726 152.623 139.409 160.225 148.315C167.826 157.22 174.969 167.741 177.591 171.888C178.028 176.799 179.36 187.342 181.195 190.223C183.03 193.104 181.304 197.535 180.212 199.39C179.447 202.992 175.887 208.558 167.761 202.009C165.249 201.573 159.963 199.325 158.914 193.824C157.866 188.324 147.118 152.68 141.876 135.546C140.019 130.417 134.733 119.241 128.442 115.574C122.675 108.764 121.452 104.006 121.561 102.478Z"/><path fill="#fff" d="M46.1996 137.183L48.4932 131.29C47.401 131.29 44.4958 132.076 41.6124 135.219C38.729 138.362 38.2266 155.954 38.3358 164.358C44.3647 171.954 47.1826 182.365 47.8379 186.621C52.294 190.288 57.5584 192.733 59.6336 193.497C58.8472 206.593 66.7328 212.486 70.7739 213.796C73.6573 220.082 77.4363 223.4 78.9654 224.273C87.3534 229.25 89.0135 235.514 88.7951 238.024C93.2513 243.786 99.3894 245.882 101.901 246.209C99.8262 245.336 96.1346 242.608 97.9695 238.679C99.8044 234.75 95.6759 232.676 93.3823 232.131C88.4019 228.202 90.215 223.727 91.744 221.981C94.3653 218.314 91.744 219.58 90.1057 220.672C85.1253 221.981 86.0646 219.471 87.1568 218.052C88.6859 216.306 92.1372 211.635 93.71 206.921C95.2827 202.206 93.2731 203.865 92.0717 205.284L83.8802 215.761C80.9313 218.38 80.7129 215.651 81.5866 214.123L85.1909 207.248C86.2394 202.271 83.8802 204.301 82.5696 205.938L80.276 209.54C77.9824 213.469 76.3441 210.74 76.6718 209.212C78.7688 202.664 78.903 197.098 77.6547 195.461C73.4607 189.961 73.286 192.951 73.7229 195.134C74.5092 198.277 72.9583 198.408 72.0846 198.081L67.4974 187.931C63.8276 181.907 66.842 176.472 68.808 174.507L60.6165 170.906C48.5587 156.238 45.9811 142.312 46.1996 137.183Z"/><path fill="#111" d="M18.5127 83.2835L0 89.0156V97.1079L35.0058 117.339L43.084 118.687C48.2451 122.958 62.4718 130.286 78.0898 125.431C93.7077 120.576 111.3 105.65 118.144 98.7938L119.491 93.3989C121.376 92.0502 125.662 85.419 127.569 82.272C128.915 71.752 141.818 50.0151 148.101 40.4616C142.447 36.1457 136.769 35.2915 134.638 35.4039L124.876 44.845V35.4039C124.068 32.167 126.784 24.1646 128.242 20.568C125.011 22.9957 117.022 19.5565 113.432 17.5334L109.393 20.568L104.007 13.4872C98.8913 12.4082 90.2071 4.04616 86.5046 0L71.3579 12.1385L65.9724 11.4641L49.1427 21.5795L31.3032 20.568L23.5616 31.3578L24.2348 42.1475L21.8786 49.5655L24.2348 56.9835L10.0978 69.4591L18.5127 83.2835Z"/><path fill="#fff" d="M80.7823 97.7822C76.7433 97.7822 69.8767 105.2 72.0309 113.293C74.387 111.157 79.4359 105.065 80.7823 97.7822Z"/><path fill="#fff" d="M46.4497 111.944L4.37545 92.05C3.25347 92.612 1.41342 94.4103 3.02907 97.1078C17.5699 101.154 29.5078 109.583 33.6591 113.292C33.4347 113.854 35.0055 115.046 43.0837 115.316C51.162 115.585 54.7523 117.001 55.5377 117.676H70.0112C66.2414 112.551 52.7327 111.719 46.4497 111.944Z"/><path fill="#fff" d="M28.2739 71.8195L22.5518 66.0874V75.5285L29.9568 79.9118H39.718L58.2307 87.3298L35.0057 69.7964L28.2739 71.8195Z"/><path fill="#fff" d="M55.5378 120.036L46.1132 118.351C45.5522 118.463 45.6419 119.362 50.4889 122.06C56.5476 125.431 73.7139 128.803 74.0505 124.083C74.3871 119.362 63.6161 117.676 59.9135 119.362C56.9515 120.711 55.7622 120.374 55.5378 120.036Z"/><path fill="#fff" d="M44.0935 24.2769C37.0923 30.2113 31.9761 41.3607 30.2931 46.1936C27.6004 43.1589 23.5613 35.4039 27.937 27.6487C31.4376 21.4446 40.1666 22.8158 44.0935 24.2769Z"/><path fill="#fff" d="M39.0451 57.3203C33.6596 51.386 32.9864 47.2049 33.323 45.8562C47.3253 54.2183 51.0502 70.4703 51.1624 77.5511C49.3673 73.2802 44.4306 63.2547 39.0451 57.3203Z"/><path fill="#fff" d="M46.4501 52.6003C34.602 46.9357 34.7815 40.3495 36.3523 37.7644C37.4743 40.9114 41.8724 47.7449 50.4892 49.9029C52.7331 49.7905 57.8942 50.3075 60.587 53.2747C51.4316 53.8142 47.3477 53.0499 46.4501 52.6003Z"/><path fill="#fff" d="M46.4499 31.3579C42.523 37.5395 40.2566 49.2285 62.6064 46.531C51.0275 41.9454 47.0108 34.5049 46.4499 31.3579Z"/><path fill="#fff" d="M84.485 97.4454C73.4447 110.393 74.387 122.519 77.0799 123.745C84.485 127.117 110.739 109.584 118.481 94.0735C114.442 95.1975 104.681 96.6361 97.9487 93.3992C91.2169 90.1623 86.168 94.7479 84.485 97.4454Z"/><path fill="#fff" d="M93.9097 87.6668C99.0708 76.5399 110.739 54.758 116.125 56.6463C122.857 59.0065 110.066 89.0155 93.9097 87.6668Z"/><path fill="#fff" d="M58.5673 32.3697C60.4746 30.5714 65.6357 27.9189 71.0212 31.6953C64.8279 37.0902 60.138 34.3928 58.5673 32.3697Z"/><path fill="#fff" d="M66.9821 36.0788C59.9809 38.5065 56.4355 35.5168 55.5379 33.7185C54.6403 34.9548 53.7203 38.1693 57.2209 41.1365C61.5966 44.8454 64.6259 42.148 70.348 41.1365C74.9257 40.3272 75.3969 36.9779 75.0603 35.4044C75.2847 34.6176 73.9832 33.6511 66.9821 36.0788Z"/><path fill="#fff" d="M73.0408 52.9375C78.6956 46.4637 88.4119 40.1247 92.5633 37.7644C91.7554 39.9224 92.2267 45.1824 92.5633 47.5426C87.2307 53.9528 71.9981 63.3161 64.837 67.3186C64.7635 67.368 64.6931 67.4075 64.626 67.4363C64.6955 67.3976 64.7659 67.3583 64.837 67.3186C66.8289 65.9784 71.0932 57.2732 73.0408 52.9375Z"/><path fill="#fff" d="M72.0311 25.6255C60.4523 16.7239 53.5184 27.0866 51.4989 33.3806C51.1623 34.2798 51.095 35.5386 53.5184 33.3806C57.5576 28.323 60.2503 27.3114 63.6163 26.637C66.309 26.0975 71.9189 30.4584 74.3873 32.7063C78.4264 34.055 83.6099 34.5271 72.0311 25.6255Z"/><path fill="#fff" d="M78.0894 40.7987C72.1653 40.7987 69.1135 43.7209 68.3281 45.1821C74.2522 45.7215 77.9772 45.4068 79.0991 45.1821C90.9473 37.6292 94.3581 32.8188 94.5825 31.3577C97.0059 18.6798 91.7775 15.735 88.8604 15.8474C82.1285 15.173 83.0036 18.9494 74.3868 15.173C65.77 11.3966 58.9035 17.1961 56.5474 20.5678C72.3673 19.2191 71.0209 22.9282 79.7723 21.9166C88.8683 20.8652 85.4944 40.7987 78.0894 40.7987Z"/><path fill="#fff" d="M133.964 37.4268L124.876 47.5422L134.974 42.8217C128.691 53.0495 115.788 74.6515 114.442 79.2372C113.095 83.8228 97.7243 89.465 90.207 91.7128C95.054 91.4431 103.446 92.9492 107.037 93.7359C119.423 94.5451 123.866 88.0038 124.54 84.632C129.117 70.0659 131.159 65.0756 131.608 64.4012C142.648 49.8351 145.857 42.3721 146.082 40.4614C144.197 36.685 137.218 36.8648 133.964 37.4268Z"/><path fill="#fff" d="M32.6494 98.794C44.9912 98.794 72.4348 93.7363 83.4751 73.5055C92.0021 63.6148 109.662 43.8336 112.086 43.8336C113.32 42.9344 116.327 40.192 118.481 36.4156C115.115 31.1331 109.325 20.4333 113.095 19.8938C113.544 20.9053 116.798 22.7935 126.222 22.2541C124.988 27.8737 122.655 40.6641 123.193 46.8682C118.439 50.9359 109.489 58.7518 107.455 61.0858C107.188 61.6328 107.037 61.8857 107.037 61.7041C107.037 61.6092 107.185 61.3959 107.455 61.0858C108.674 58.5851 112.293 49.9374 114.778 48.5541C112.086 48.7789 104.68 54.9605 96.6022 77.8888C93.4607 84.6324 83.0038 98.7265 66.3088 101.154C64.2892 100.48 58.3652 100.143 50.8255 104.189C43.2858 108.235 35.5666 102.278 32.6494 98.794Z"/><path fill="#fff" d="M87.1778 54.96C71.2906 63.0523 64.8504 71.819 63.6162 75.1908C65.7704 75.1908 67.6553 73.8421 68.3285 73.1677C74.5219 65.8846 86.8412 61.816 92.2267 60.692C101.382 49.093 109.281 43.271 112.086 41.8099C109.393 34.2571 109.393 26.7492 109.73 23.9394C105.69 22.3209 103.559 16.7462 102.998 14.1612C93.3038 10.9242 90.6559 7.41752 90.5437 6.06877C88.6588 -1.75381 83.4753 1.46064 81.1191 4.04569C78.5385 6.06879 73.7813 10.3847 75.397 11.4637C77.0126 12.5427 79.8849 11.9133 81.1191 11.4637C82.5777 9.44064 85.8314 6.33858 87.1778 10.115C88.5242 13.8914 92.0023 14.3859 93.5731 14.1612C102.728 20.9048 103.671 27.7608 102.998 30.3458C104.344 35.1787 103.065 46.8676 87.1778 54.96Z"/><path fill="#fff" d="M102.885 247.846L114.68 239.006L117.629 243.262C116.974 241.844 115.532 238.482 115.008 236.387C114.484 234.292 115.226 229.402 115.663 227.22L116.319 182.365C116.581 170.578 111.622 166.322 109.11 165.667C102.12 165.34 87.8779 164.227 86.8294 162.393C85.781 160.56 80.0579 157.046 77.3274 155.518C76.8031 153.684 72.9586 150.17 71.1019 148.642C72.6746 146.547 76.9997 148.642 78.9657 149.952C82.2422 152.244 88.8609 156.238 89.123 153.881C89.3851 151.523 84.4266 147.005 81.9146 145.041C79.0312 144.779 74.16 139.911 72.0848 137.51C66.1869 138.165 57.9955 129.325 59.6338 130.307C60.9444 131.093 70.2281 133.036 74.706 133.909L83.5528 139.147L75.3614 133.581C75.689 133.472 75.1649 133.123 70.4466 132.599C65.7283 132.075 64.9856 129.762 65.2041 128.67L76.9997 130.962L88.14 136.856C87.4847 135.109 86.1086 131.29 85.8465 129.98C85.5844 128.67 82.2423 122.231 80.604 119.176C79.0313 114.199 80.604 111.645 81.587 110.99C83.1598 118.324 87.2663 125.833 89.123 128.67C88.0745 126.837 88.0308 121.14 88.14 118.521C91.7443 123.759 92.3996 127.361 94.3655 130.962C95.9383 133.843 100.7 138.493 102.885 140.457C103.212 142.203 105.899 146.809 114.025 151.261C122.151 155.714 125.275 163.157 125.821 166.322C127.131 185.639 128.442 187.931 128.442 188.586C133.947 206.135 137.289 223.182 138.272 229.511L132.374 246.864L129.753 228.857C130.408 236.823 131.587 254.132 131.063 259.633C130.539 265.133 127.35 264.762 125.821 263.889C125.056 262.361 122.544 259.633 118.612 260.942C114.68 262.252 113.042 259.742 112.714 258.323L102.885 247.846Z"/><path fill="#fff" d="M198.887 136.337V163H189.905V94.8917H215.025C222.478 94.8917 228.31 96.794 232.52 100.599C236.761 104.403 238.882 109.44 238.882 115.708C238.882 122.319 236.808 127.418 232.66 131.004C228.544 134.559 222.634 136.337 214.931 136.337H198.887ZM198.887 128.993H215.025C219.828 128.993 223.507 127.87 226.065 125.625C228.622 123.348 229.9 120.074 229.9 115.801C229.9 111.747 228.622 108.504 226.065 106.072C223.507 103.639 219.999 102.376 215.54 102.283H198.887V128.993ZM258.388 163H249.734V112.387H258.388V163ZM249.032 98.9614C249.032 97.5581 249.453 96.373 250.295 95.4063C251.169 94.4396 252.447 93.9562 254.131 93.9562C255.815 93.9562 257.094 94.4396 257.967 95.4063C258.84 96.373 259.277 97.5581 259.277 98.9614C259.277 100.365 258.84 101.534 257.967 102.47C257.094 103.405 255.815 103.873 254.131 103.873C252.447 103.873 251.169 103.405 250.295 102.47C249.453 101.534 249.032 100.365 249.032 98.9614ZM280.467 112.387L280.748 118.748C284.615 113.883 289.667 111.451 295.904 111.451C306.6 111.451 311.995 117.485 312.089 129.554V163H303.435V129.507C303.404 125.859 302.562 123.161 300.909 121.415C299.287 119.668 296.746 118.795 293.284 118.795C290.477 118.795 288.014 119.544 285.893 121.04C283.773 122.537 282.12 124.502 280.935 126.934V163H272.281V112.387H280.467ZM339.266 139.564L333.84 145.224V163H325.186V91.1495H333.84V134.606L338.471 129.039L354.235 112.387H364.76L345.067 133.53L367.052 163H356.902L339.266 139.564ZM412.614 132.922H384.033V163H375.051V94.8917H417.245V102.283H384.033V125.578H412.614V132.922ZM436.049 163H427.396V91.1495H436.049V163ZM447.65 137.226C447.65 132.267 448.617 127.808 450.55 123.847C452.515 119.887 455.228 116.83 458.69 114.679C462.183 112.527 466.159 111.451 470.618 111.451C477.51 111.451 483.077 113.837 487.318 118.608C491.59 123.379 493.726 129.726 493.726 137.647V138.255C493.726 143.182 492.775 147.61 490.873 151.539C489.002 155.438 486.304 158.478 482.78 160.661C479.288 162.844 475.265 163.936 470.712 163.936C463.851 163.936 458.284 161.55 454.012 156.779C449.771 152.007 447.65 145.692 447.65 137.834V137.226ZM456.351 138.255C456.351 143.868 457.645 148.374 460.233 151.773C462.853 155.173 466.346 156.872 470.712 156.872C475.109 156.872 478.601 155.157 481.19 151.727C483.778 148.265 485.072 143.431 485.072 137.226C485.072 131.675 483.747 127.184 481.096 123.754C478.477 120.292 474.984 118.561 470.618 118.561C466.346 118.561 462.9 120.261 460.28 123.66C457.661 127.059 456.351 131.924 456.351 138.255ZM520.389 150.323L532.177 112.387H541.439L521.091 170.812C517.941 179.232 512.936 183.442 506.076 183.442L504.438 183.301L501.211 182.693V175.677L503.55 175.864C506.481 175.864 508.757 175.271 510.379 174.086C512.032 172.901 513.388 170.734 514.449 167.584L516.367 162.439L498.31 112.387H507.76L520.389 150.323ZM546.445 137.272C546.445 129.507 548.285 123.27 551.964 118.561C555.644 113.821 560.462 111.451 566.419 111.451C572.344 111.451 577.037 113.478 580.499 117.532V91.1495H589.153V163H581.2L580.779 157.574C577.318 161.815 572.5 163.936 566.325 163.936C560.462 163.936 555.675 161.534 551.964 156.732C548.285 151.929 546.445 145.661 546.445 137.927V137.272ZM555.099 138.255C555.099 143.993 556.284 148.483 558.654 151.727C561.024 154.97 564.298 156.591 568.477 156.591C573.965 156.591 577.973 154.128 580.499 149.201V125.952C577.91 121.181 573.934 118.795 568.57 118.795C564.329 118.795 561.024 120.432 558.654 123.707C556.284 126.981 555.099 131.83 555.099 138.255Z"/><path fill="#fff" d="M189.594 176.5H193.469V218.75H219.219V176.5H223.062V218.688H227.531L227.25 232.969H223.688V222H189.594V176.5ZM235.438 222V176.5H248.875C253.75 176.5 257.448 177.51 259.969 179.531C262.49 181.531 263.75 184.49 263.75 188.406C263.75 190.76 263.104 192.812 261.812 194.562C260.542 196.292 258.792 197.531 256.562 198.281C259.208 198.865 261.333 200.167 262.938 202.188C264.562 204.208 265.375 206.542 265.375 209.188C265.375 213.208 264.073 216.354 261.469 218.625C258.885 220.875 255.281 222 250.656 222H235.438ZM239.281 200.125V218.75H250.812C254.104 218.75 256.708 217.917 258.625 216.25C260.562 214.562 261.531 212.229 261.531 209.25C261.531 206.438 260.604 204.219 258.75 202.594C256.917 200.948 254.375 200.125 251.125 200.125H239.281ZM239.281 196.906H249.781C252.99 196.844 255.469 196.094 257.219 194.656C258.99 193.198 259.875 191.083 259.875 188.312C259.875 185.396 258.958 183.25 257.125 181.875C255.312 180.479 252.562 179.781 248.875 179.781H239.281V196.906ZM299.812 200.188H278.531V218.75H303V222H274.688V176.5H302.844V179.781H278.531V196.938H299.812V200.188ZM342.625 179.781H327.031V222H323.188V179.781H307.625V176.5H342.625V179.781ZM353.906 196.25H365.188C368.292 196.25 370.979 196.771 373.25 197.812C375.521 198.833 377.25 200.312 378.438 202.25C379.646 204.167 380.25 206.438 380.25 209.062C380.25 213.083 378.906 216.25 376.219 218.562C373.531 220.854 369.812 222 365.062 222H350.062V176.5H353.906V196.25ZM353.906 199.531V218.75H365.156C368.677 218.75 371.427 217.885 373.406 216.156C375.385 214.406 376.375 212.021 376.375 209C376.375 206.125 375.417 203.844 373.5 202.156C371.583 200.448 368.896 199.573 365.438 199.531H353.906ZM391.594 222H387.75V176.5H391.594V222Z"/></svg>